<?xml version="1.0" encoding="utf-8" ?>
<svg baseProfile="full" height="160px" version="1.1" width="280px" xmlns="http://www.w3.org/2000/svg" xmlns:ev="http://www.w3.org/2001/xml-events" xmlns:xlink="http://www.w3.org/1999/xlink"><defs><linearGradient id="islandGradient" x1="0%" x2="100%" y1="0%" y2="100%"><stop offset="0%" stop-color="#A8E6CF" /><stop offset="100%" stop-color="#DCEDC1" /></linearGradient></defs><path d="M30,80 C30,50 70,30 140,30 C210,30 250,50 250,80 C250,110 210,130 140,130 C70,130 30,110 30,80 Z" fill="url(#islandGradient)" stroke="#88D8B0" stroke-width="2" /><path d="M40,85 C40,60 75,40 140,40 C205,40 240,60 240,85 C240,110 205,130 140,130 C75,130 40,110 40,85 Z" fill="none" filter="url(#shadow)" /><circle cx="211" cy="110" fill="#88D8B0" r="5" /><circle cx="195" cy="96" fill="#88D8B0" r="4" /><circle cx="201" cy="75" fill="#88D8B0" r="6" /><circle cx="216" cy="96" fill="#88D8B0" r="6" /><circle cx="126" cy="91" fill="#88D8B0" r="6" /><circle cx="82" cy="93" fill="#88D8B0" r="4" /><circle cx="145" cy="103" fill="#88D8B0" r="3" /><circle cx="119" cy="89" fill="#88D8B0" r="4" /></svg>