<?xml version="1.0" encoding="utf-8" ?>
<svg baseProfile="full" height="1334px" version="1.1" width="750px" xmlns="http://www.w3.org/2000/svg" xmlns:ev="http://www.w3.org/2001/xml-events" xmlns:xlink="http://www.w3.org/1999/xlink"><defs><linearGradient id="bgGradient" x1="0%" x2="100%" y1="0%" y2="100%"><stop offset="0%" stop-color="#F9FAFC" /><stop offset="100%" stop-color="#E6F2FF" /></linearGradient></defs><rect fill="url(#bgGradient)" height="100%" width="100%" x="0" y="0" /><circle cx="425" cy="779" fill="#B088F9" opacity="0.3811364299689407" r="2" /><circle cx="44" cy="625" fill="#B088F9" opacity="0.2640244129592044" r="1" /><circle cx="728" cy="826" fill="#B088F9" opacity="0.26672745273592013" r="1" /><circle cx="427" cy="1145" fill="#B088F9" opacity="0.39814928115894455" r="3" /><circle cx="641" cy="904" fill="#B088F9" opacity="0.4064943624799565" r="4" /><circle cx="460" cy="1135" fill="#B088F9" opacity="0.2264331798202627" r="3" /><circle cx="663" cy="474" fill="#B088F9" opacity="0.2233103698451506" r="3" /><circle cx="269" cy="1221" fill="#B088F9" opacity="0.2153495177247045" r="1" /><circle cx="317" cy="1074" fill="#B088F9" opacity="0.363292886483795" r="2" /><circle cx="704" cy="989" fill="#B088F9" opacity="0.17743919150399645" r="3" /><circle cx="214" cy="820" fill="#B088F9" opacity="0.17991530812665762" r="4" /><circle cx="385" cy="804" fill="#B088F9" opacity="0.2860359030413014" r="2" /><circle cx="365" cy="936" fill="#B088F9" opacity="0.19104186512452564" r="4" /><circle cx="147" cy="1103" fill="#B088F9" opacity="0.19309011482838656" r="1" /><circle cx="599" cy="1088" fill="#B088F9" opacity="0.10081409188035534" r="2" /><circle cx="240" cy="1155" fill="#B088F9" opacity="0.4506068391417418" r="1" /><circle cx="247" cy="627" fill="#B088F9" opacity="0.1387264411815637" r="1" /><circle cx="511" cy="499" fill="#B088F9" opacity="0.2910495203979808" r="2" /><circle cx="14" cy="271" fill="#B088F9" opacity="0.4323279037171359" r="1" /><circle cx="220" cy="946" fill="#B088F9" opacity="0.3620908158768189" r="1" /><circle cx="303" cy="155" fill="#B088F9" opacity="0.2190750786930422" r="1" /><circle cx="180" cy="1073" fill="#B088F9" opacity="0.3506841305459335" r="1" /><circle cx="717" cy="930" fill="#B088F9" opacity="0.15555606230726254" r="4" /><circle cx="503" cy="1294" fill="#B088F9" opacity="0.17396027548133836" r="3" /><circle cx="629" cy="546" fill="#B088F9" opacity="0.42682373229877346" r="4" /><circle cx="649" cy="423" fill="#B088F9" opacity="0.4337289732221956" r="1" /><circle cx="354" cy="111" fill="#B088F9" opacity="0.476456072453894" r="4" /><circle cx="711" cy="877" fill="#B088F9" opacity="0.4048978768833852" r="2" /><circle cx="36" cy="422" fill="#B088F9" opacity="0.42978184504118355" r="2" /><circle cx="531" cy="688" fill="#B088F9" opacity="0.3973557345573888" r="2" /><circle cx="723" cy="597" fill="#B088F9" opacity="0.17108799883188178" r="4" /><circle cx="739" cy="804" fill="#B088F9" opacity="0.1800701280144162" r="1" /><circle cx="463" cy="101" fill="#B088F9" opacity="0.15844754599090552" r="1" /><circle cx="242" cy="867" fill="#B088F9" opacity="0.44817361045627" r="1" /><circle cx="573" cy="32" fill="#B088F9" opacity="0.33766574277117156" r="4" /><circle cx="485" cy="1129" fill="#B088F9" opacity="0.32279146781947726" r="1" /><circle cx="577" cy="446" fill="#B088F9" opacity="0.15435153715104213" r="4" /><circle cx="553" cy="1172" fill="#B088F9" opacity="0.2727617017394359" r="4" /><circle cx="726" cy="385" fill="#B088F9" opacity="0.42196577549086356" r="1" /><circle cx="618" cy="365" fill="#B088F9" opacity="0.49797111539459105" r="1" /><circle cx="255" cy="1088" fill="#B088F9" opacity="0.43099926679852685" r="2" /><circle cx="655" cy="842" fill="#B088F9" opacity="0.4352839948007018" r="4" /><circle cx="314" cy="339" fill="#B088F9" opacity="0.47358544279564185" r="4" /><circle cx="494" cy="846" fill="#B088F9" opacity="0.31949029747452484" r="2" /><circle cx="74" cy="557" fill="#B088F9" opacity="0.174112613056553" r="4" /><circle cx="139" cy="535" fill="#B088F9" opacity="0.4928030073087666" r="3" /><circle cx="250" cy="392" fill="#B088F9" opacity="0.24533361461451234" r="3" /><circle cx="167" cy="1145" fill="#B088F9" opacity="0.3181393532286674" r="2" /><circle cx="614" cy="831" fill="#B088F9" opacity="0.4212087572243509" r="1" /><circle cx="457" cy="1240" fill="#B088F9" opacity="0.38801289367020286" r="1" /><circle cx="560" cy="824" fill="none" opacity="0.2" r="64" stroke="#A8E6CF" stroke-width="1" /><circle cx="169" cy="293" fill="none" opacity="0.2" r="136" stroke="#A8E6CF" stroke-width="1" /><circle cx="588" cy="285" fill="none" opacity="0.2" r="137" stroke="#A8E6CF" stroke-width="1" /><circle cx="219" cy="1094" fill="none" opacity="0.2" r="142" stroke="#A8E6CF" stroke-width="1" /><circle cx="128" cy="339" fill="none" opacity="0.2" r="118" stroke="#A8E6CF" stroke-width="1" /></svg>