<?xml version="1.0" encoding="utf-8" ?>
<svg baseProfile="full" height="140px" version="1.1" width="120px" xmlns="http://www.w3.org/2000/svg" xmlns:ev="http://www.w3.org/2001/xml-events" xmlns:xlink="http://www.w3.org/1999/xlink"><defs><linearGradient id="doorGradient" x1="0%" x2="100%" y1="0%" y2="100%"><stop offset="0%" stop-color="#FF6B6B" /><stop offset="100%" stop-color="#FF8E8E" /></linearGradient></defs><path d="M60,10 C90,10 110,40 110,70 C110,100 90,130 60,130 C30,130 10,100 10,70 C10,40 30,10 60,10 Z" fill="url(#doorGradient)" /><circle cx="90" cy="70" fill="#FFFFFF" opacity="0.7" r="8" /><circle cx="100.0" cy="70.0" fill="#FFFFFF" opacity="0.4" r="4" /><circle cx="72.36067977499789" cy="108.04226065180615" fill="#FFFFFF" opacity="0.4" r="4" /><circle cx="27.63932022500211" cy="93.51141009169893" fill="#FFFFFF" opacity="0.4" r="4" /><circle cx="27.639320225002102" cy="46.48858990830108" fill="#FFFFFF" opacity="0.4" r="4" /><circle cx="72.36067977499789" cy="31.957739348193854" fill="#FFFFFF" opacity="0.4" r="4" /><path d="M60,15 C87,15 105,42 105,70 C105,98 87,125 60,125 C33,125 15,98 15,70 C15,42 33,15 60,15 Z" fill="none" filter="url(#glow)" opacity="0.5" stroke="#FFFFFF" stroke-width="2" /></svg>